<?xml version="1.0" encoding="utf-8"?><!-- Uploaded to: SVG Repo, www.svgrepo.com, Generator: SVG Repo Mixer Tools -->
<svg fill="#000000" width="800px" height="800px" viewBox="0 0 24 24" id="exchange-dollar" data-name="Flat Color" xmlns="http://www.w3.org/2000/svg" class="icon flat-color"><path id="secondary" d="M19.54,16.9A9,9,0,0,1,3.39,14.64c-.07-.22-.11-.45-.16-.68a1,1,0,0,1-.94-.25,1,1,0,0,1,0-1.42l1-1a1,1,0,0,1,1.42,0l1,1a1,1,0,0,1,0,1.42,1.15,1.15,0,0,1-.43.24.38.38,0,0,0,0,.1A7,7,0,0,0,12,19a7,7,0,0,0,5.86-3.18,1,1,0,1,1,1.68,1.08Zm2.17-6.61a1,1,0,0,0-.95-.24c-.05-.23-.08-.47-.15-.69A9,9,0,0,0,4.46,7.1,1,1,0,0,0,6.14,8.18,7,7,0,0,1,12,5,7,7,0,0,1,18.69,10a.38.38,0,0,1,0,.1,1.08,1.08,0,0,0-.43.24,1,1,0,0,0,0,1.42l1,1a1,1,0,0,0,1.42,0l1-1A1,1,0,0,0,21.71,10.29Z" style="fill: rgb(44, 169, 188);"></path><path id="primary" d="M12.5,11h-1a.5.5,0,0,1,0-1H14a1,1,0,0,0,0-2H13a1,1,0,0,0-2,0v.05A2.5,2.5,0,0,0,11.5,13h1a.5.5,0,0,1,0,1H10a1,1,0,0,0,0,2h1a1,1,0,0,0,2,0V16A2.5,2.5,0,0,0,12.5,11Z" style="fill: rgb(0, 0, 0);"></path></svg>